<?xml version="1.0" encoding="UTF-8" standalone="no"?>
<!DOCTYPE svg PUBLIC "-//W3C//DTD SVG 1.1//EN" "http://www.w3.org/Graphics/SVG/1.1/DTD/svg11.dtd">
<svg width="100%" height="100%" viewBox="0 0 122 60" version="1.1" xmlns="http://www.w3.org/2000/svg" xmlns:xlink="http://www.w3.org/1999/xlink" xml:space="preserve" xmlns:serif="http://www.serif.com/" style="fill-rule:evenodd;clip-rule:evenodd;">
    <rect x="0" y="0" width="122" height="60" style="fill-rule:nonzero;"/>
    <rect x="8" y="8" width="44" height="44" style="stroke:black;stroke-width:1px;"/>
    <path d="M66.46,22.53C66.46,23.837 66.163,24.743 65.57,25.25C64.983,25.75 64.267,26 63.42,26L61.93,26L61.93,19.13L63.31,19.13C64.25,19.13 65.01,19.373 65.59,19.86C66.17,20.34 66.46,21.23 66.46,22.53ZM65.77,22.53C65.77,21.737 65.657,21.133 65.43,20.72C65.203,20.3 64.927,20.023 64.6,19.89C64.28,19.757 63.917,19.69 63.51,19.69L62.56,19.69L62.56,25.45L63.52,25.45C64.147,25.45 64.677,25.237 65.11,24.81C65.55,24.377 65.77,23.617 65.77,22.53ZM70.006,20.65C70.713,20.65 71.249,20.893 71.616,21.38C71.983,21.86 72.166,22.523 72.166,23.37C72.166,24.183 71.976,24.843 71.596,25.35C71.223,25.85 70.689,26.1 69.996,26.1C69.296,26.1 68.759,25.857 68.386,25.37C68.013,24.877 67.826,24.213 67.826,23.38C67.826,22.553 68.013,21.893 68.386,21.4C68.766,20.9 69.306,20.65 70.006,20.65ZM70.006,21.2C69.006,21.2 68.506,21.927 68.506,23.38C68.506,24.827 69.003,25.55 69.996,25.55C70.989,25.55 71.486,24.823 71.486,23.37C71.486,21.923 70.993,21.2 70.006,21.2ZM77.422,20.65C78.082,20.65 78.412,21.127 78.412,22.08L78.412,26L77.812,26L77.812,22.21C77.812,21.923 77.802,21.71 77.782,21.57C77.769,21.423 77.729,21.317 77.662,21.25C77.602,21.177 77.502,21.14 77.362,21.14C76.969,21.14 76.626,21.38 76.332,21.86L76.332,26L75.642,26L75.642,22.21C75.642,21.923 75.632,21.71 75.612,21.57C75.599,21.423 75.559,21.317 75.492,21.25C75.432,21.177 75.332,21.14 75.192,21.14C74.806,21.14 74.462,21.38 74.162,21.86L74.162,26L73.572,26L73.572,20.75L74.072,20.75L74.112,21.39C74.266,21.157 74.432,20.977 74.612,20.85C74.799,20.717 75.019,20.65 75.272,20.65C75.792,20.65 76.122,20.89 76.262,21.37C76.416,21.137 76.582,20.96 76.762,20.84C76.942,20.713 77.162,20.65 77.422,20.65ZM81.988,18.38C82.148,18.38 82.275,18.427 82.368,18.52C82.468,18.613 82.518,18.73 82.518,18.87C82.518,19.023 82.468,19.147 82.368,19.24C82.275,19.333 82.148,19.38 81.988,19.38C81.842,19.38 81.722,19.333 81.628,19.24C81.535,19.147 81.488,19.023 81.488,18.87C81.488,18.73 81.535,18.613 81.628,18.52C81.722,18.427 81.842,18.38 81.988,18.38ZM82.578,20.75L82.578,25.46L84.098,25.46L84.098,26L80.298,26L80.298,25.46L81.958,25.46L81.958,21.29L80.348,21.29L80.348,20.75L82.578,20.75ZM86.074,20.75L86.594,20.75L86.654,21.52C86.854,21.253 87.121,21.043 87.454,20.89C87.788,20.73 88.108,20.65 88.414,20.65C88.934,20.65 89.311,20.783 89.544,21.05C89.784,21.31 89.904,21.693 89.904,22.2L89.904,26L89.284,26L89.284,22.87C89.284,22.43 89.261,22.093 89.214,21.86C89.174,21.627 89.081,21.453 88.934,21.34C88.788,21.227 88.564,21.17 88.264,21.17C87.944,21.17 87.641,21.27 87.354,21.47C87.074,21.663 86.854,21.883 86.694,22.13L86.694,26L86.074,26L86.074,20.75ZM93.981,18.38C94.141,18.38 94.267,18.427 94.361,18.52C94.461,18.613 94.51,18.73 94.51,18.87C94.51,19.023 94.461,19.147 94.361,19.24C94.267,19.333 94.141,19.38 93.981,19.38C93.834,19.38 93.714,19.333 93.621,19.24C93.527,19.147 93.481,19.023 93.481,18.87C93.481,18.73 93.527,18.613 93.621,18.52C93.714,18.427 93.834,18.38 93.981,18.38ZM94.571,20.75L94.571,25.46L96.091,25.46L96.091,26L92.29,26L92.29,25.46L93.951,25.46L93.951,21.29L92.341,21.29L92.341,20.75L94.571,20.75ZM98.767,18.54L98.767,26L98.147,26L98.147,18.62L98.767,18.54ZM102.297,20.75L99.747,23.13L102.607,26L101.707,26L98.867,23.13L101.377,20.75L102.297,20.75ZM67.996,39L66.268,39L66.172,35.436C66.164,35.26 66.16,35.02 66.16,34.716C66.16,34.316 66.172,33.928 66.196,33.552C66.22,33.168 66.248,32.768 66.28,32.352L65.344,37.584L63.856,37.584L62.836,32.352C62.924,33.272 62.968,34.1 62.968,34.836L62.956,35.472L62.896,39L61.204,39L61.672,30.684L63.7,30.684L64.624,36.06L65.5,30.684L67.528,30.684L67.996,39ZM74.399,37.164C74.399,37.396 74.431,37.568 74.495,37.68C74.559,37.792 74.667,37.876 74.819,37.932L74.423,39.18C74.039,39.14 73.719,39.056 73.463,38.928C73.207,38.792 73.007,38.596 72.863,38.34C72.623,38.62 72.319,38.836 71.951,38.988C71.583,39.132 71.191,39.204 70.775,39.204C70.119,39.204 69.595,39.02 69.203,38.652C68.811,38.276 68.615,37.792 68.615,37.2C68.615,36.512 68.887,35.98 69.431,35.604C69.975,35.22 70.739,35.028 71.723,35.028L72.575,35.028L72.575,34.8C72.575,34.144 72.155,33.816 71.315,33.816C71.099,33.816 70.827,33.848 70.499,33.912C70.179,33.968 69.867,34.048 69.563,34.152L69.131,32.892C69.539,32.74 69.963,32.624 70.403,32.544C70.851,32.456 71.255,32.412 71.615,32.412C73.471,32.412 74.399,33.164 74.399,34.668L74.399,37.164ZM71.423,37.848C71.639,37.848 71.855,37.788 72.071,37.668C72.295,37.54 72.463,37.368 72.575,37.152L72.575,36.108L72.107,36.108C71.083,36.108 70.571,36.428 70.571,37.068C70.571,37.316 70.643,37.508 70.787,37.644C70.939,37.78 71.151,37.848 71.423,37.848ZM81.751,30.096L81.751,39L80.071,39L79.975,38.304C79.783,38.576 79.539,38.796 79.243,38.964C78.947,39.124 78.603,39.204 78.211,39.204C77.443,39.204 76.859,38.9 76.459,38.292C76.067,37.684 75.871,36.852 75.871,35.796C75.871,35.14 75.975,34.556 76.183,34.044C76.391,33.532 76.687,33.132 77.071,32.844C77.455,32.556 77.903,32.412 78.415,32.412C78.991,32.412 79.471,32.612 79.855,33.012L79.855,29.892L81.751,30.096ZM78.919,33.804C78.575,33.804 78.307,33.968 78.115,34.296C77.923,34.616 77.827,35.12 77.827,35.808C77.827,36.544 77.911,37.064 78.079,37.368C78.255,37.664 78.499,37.812 78.811,37.812C79.211,37.812 79.559,37.568 79.855,37.08L79.855,34.332C79.719,34.156 79.575,34.024 79.423,33.936C79.279,33.848 79.111,33.804 78.919,33.804ZM88.79,37.164C88.79,37.396 88.822,37.568 88.886,37.68C88.95,37.792 89.058,37.876 89.21,37.932L88.814,39.18C88.43,39.14 88.11,39.056 87.854,38.928C87.598,38.792 87.398,38.596 87.254,38.34C87.014,38.62 86.71,38.836 86.342,38.988C85.974,39.132 85.582,39.204 85.166,39.204C84.51,39.204 83.986,39.02 83.594,38.652C83.202,38.276 83.006,37.792 83.006,37.2C83.006,36.512 83.278,35.98 83.822,35.604C84.366,35.22 85.13,35.028 86.114,35.028L86.966,35.028L86.966,34.8C86.966,34.144 86.546,33.816 85.706,33.816C85.49,33.816 85.218,33.848 84.89,33.912C84.57,33.968 84.258,34.048 83.954,34.152L83.522,32.892C83.93,32.74 84.354,32.624 84.794,32.544C85.242,32.456 85.646,32.412 86.006,32.412C87.862,32.412 88.79,33.164 88.79,34.668L88.79,37.164ZM85.814,37.848C86.03,37.848 86.246,37.788 86.462,37.668C86.686,37.54 86.854,37.368 86.966,37.152L86.966,36.108L86.498,36.108C85.474,36.108 84.962,36.428 84.962,37.068C84.962,37.316 85.034,37.508 85.178,37.644C85.33,37.78 85.542,37.848 85.814,37.848ZM95.481,32.436C95.865,32.436 96.217,32.5 96.537,32.628L96.189,35.292L94.989,35.292L94.989,34.128C94.637,34.184 94.325,34.372 94.053,34.692C93.781,35.012 93.569,35.416 93.417,35.904L93.417,37.728L94.677,37.728L94.677,39L90.681,39L90.681,37.728L91.521,37.728L91.521,33.888L90.681,33.888L90.681,32.628L92.973,32.628L93.309,34.056C93.541,33.512 93.833,33.108 94.185,32.844C94.537,32.572 94.969,32.436 95.481,32.436ZM103.181,37.164C103.181,37.396 103.213,37.568 103.277,37.68C103.341,37.792 103.449,37.876 103.601,37.932L103.205,39.18C102.821,39.14 102.501,39.056 102.245,38.928C101.989,38.792 101.789,38.596 101.645,38.34C101.405,38.62 101.101,38.836 100.733,38.988C100.365,39.132 99.973,39.204 99.557,39.204C98.901,39.204 98.377,39.02 97.985,38.652C97.593,38.276 97.397,37.792 97.397,37.2C97.397,36.512 97.669,35.98 98.213,35.604C98.757,35.22 99.521,35.028 100.505,35.028L101.357,35.028L101.357,34.8C101.357,34.144 100.937,33.816 100.097,33.816C99.881,33.816 99.609,33.848 99.281,33.912C98.961,33.968 98.649,34.048 98.345,34.152L97.913,32.892C98.321,32.74 98.745,32.624 99.185,32.544C99.633,32.456 100.037,32.412 100.397,32.412C102.253,32.412 103.181,33.164 103.181,34.668L103.181,37.164ZM100.205,37.848C100.421,37.848 100.637,37.788 100.853,37.668C101.077,37.54 101.245,37.368 101.357,37.152L101.357,36.108L100.889,36.108C99.865,36.108 99.353,36.428 99.353,37.068C99.353,37.316 99.425,37.508 99.569,37.644C99.721,37.78 99.933,37.848 100.205,37.848ZM101.405,28.98L102.149,30.408L99.305,31.536L98.789,30.564L101.405,28.98ZM107.568,37.848C107.896,37.848 108.152,37.8 108.336,37.704C108.528,37.6 108.624,37.448 108.624,37.248C108.624,37.104 108.584,36.988 108.504,36.9C108.432,36.812 108.292,36.728 108.084,36.648C107.876,36.56 107.552,36.456 107.112,36.336C106.472,36.168 105.984,35.936 105.648,35.64C105.312,35.336 105.144,34.92 105.144,34.392C105.144,33.808 105.384,33.332 105.864,32.964C106.352,32.596 107.032,32.412 107.904,32.412C108.912,32.412 109.772,32.672 110.484,33.192L109.728,34.308C109.144,33.948 108.556,33.768 107.964,33.768C107.652,33.768 107.42,33.808 107.268,33.888C107.124,33.968 107.052,34.092 107.052,34.26C107.052,34.372 107.088,34.468 107.16,34.548C107.24,34.62 107.384,34.696 107.592,34.776C107.808,34.856 108.128,34.956 108.552,35.076C109.008,35.204 109.38,35.344 109.668,35.496C109.964,35.648 110.192,35.852 110.352,36.108C110.512,36.364 110.592,36.692 110.592,37.092C110.592,37.54 110.456,37.924 110.184,38.244C109.912,38.564 109.548,38.804 109.092,38.964C108.636,39.124 108.132,39.204 107.58,39.204C106.988,39.204 106.452,39.12 105.972,38.952C105.492,38.784 105.084,38.548 104.748,38.244L105.696,37.176C106.272,37.624 106.896,37.848 107.568,37.848ZM114.475,37.56L117.655,37.56L117.475,39L112.231,39L112.231,37.656L115.399,34.056L112.495,34.056L112.495,32.628L117.595,32.628L117.595,33.96L114.475,37.56Z" style="fill:white;fill-rule:nonzero;"/>
    <path d="M11,49L11,18L27,49L11,49Z" style="fill:white;fill-rule:nonzero;"/>
    <path d="M47,11L14,11L30.5,43.5L47,11Z" style="fill:white;fill-rule:nonzero;"/>
    <path d="M49,18L34,49L49,49L49,18Z" style="fill:white;fill-rule:nonzero;"/>
</svg>
